<svg xmlns="http://www.w3.org/2000/svg" width="48" height="48">
  <path fill="#fff" stroke="#72a7cf" stroke-width="5.177" d="M24 2.588C12.175 2.588 2.588 12.175 2.588 24S12.175 45.412 24 45.412 45.412 35.825 45.412 24 35.825 2.588 24 2.588z"/>
  <path d="M20.692 20.098h6.634v18.687h-6.634ZM24 9.216c1.044.023 1.932.38 2.666 1.067.676.723 1.026 1.606 1.05 2.649-.024 1.043-.374 1.902-1.05 2.578-.734.759-1.622 1.138-2.666 1.138-1.044 0-1.902-.38-2.577-1.138-.759-.676-1.14-1.535-1.14-2.578s.381-1.926 1.14-2.65a3.466 3.466 0 0 1 1.058-.742c.453-.203.96-.311 1.519-.324z"/>
</svg>
