<svg xmlns="http://www.w3.org/2000/svg" xml:space="preserve" id="Layer_1" width="35.109" height="48" version="1.1">
  <style id="style1" type="text/css">
    .st0{fill:#e56f25}.st1{fill:#f58634}.st2{fill:#53b1e2}.st3{fill:#fbb444}.st4{fill:#e7e3e6}.st6{fill:#4e4c4d}.st7{fill:#656766}.st10{fill:#22a7d4}
  </style>
  <g id="g26" transform="translate(-16.869 -14.674) scale(1.37143)">
    <g id="g1" transform="translate(.114)">
      <path id="path1" d="M17.4 13.7h1.2v5.5c-.7 0-1.2-.6-1.2-1.2z" class="st0"/>
    </g>
    <g id="g2">
      <path id="path2" d="M32.6 13.7h-1.2v5.5c.7 0 1.2-.6 1.2-1.2z" class="st0"/>
    </g>
    <g id="g3">
      <path id="path3" d="M32.6 16.7v-3.4c0-.9-.7-1.6-1.6-1.6h-2.2v5z" class="st1"/>
    </g>
    <g id="g4">
      <path id="rect3" d="M20.5 30.1h9v5.5h-9z" class="st2"/>
    </g>
    <g id="g5">
      <path id="path4" d="M20.3 31.6c-4.2 0-7.8 3.7-8 8.5V42c0 2 1.4 3.7 3.2 3.7h19.2c1.8 0 3.2-1.6 3.2-3.7v-.4c0-.8-.1-1.6-.2-2.4-.6-4.4-4-7.5-7.9-7.5z" class="st2"/>
    </g>
    <g id="g6">
      <path id="path5" d="M23.3 24c-.7.8-1.4 5.2-1.6 5.9-.5 1.3.7 2.9 1.8 4 .9.9 2.1.9 3 0 1.1-1.1 2.3-2.6 1.8-4-.2-.7-.9-5.1-1.6-5.9z" class="st3"/>
    </g>
    <g id="g9">
      <g id="g7">
        <path id="path6" d="M29.5 30.1 25.7 33l.9 1.3c.4.6 1.2.7 1.7.2l2.8-2.8z" class="st4"/>
      </g>
      <g id="g8">
        <path id="path7" d="m20.5 30.1 3.8 2.9-.9 1.3c-.4.6-1.2.7-1.7.2L19 31.7Z" class="st4"/>
      </g>
    </g>
    <g id="g10">
      <path id="path9" fill="#ffc966" d="M18.7 16.2v7c0 1.1.3 2.2.9 3.1l1.4 2.1c1.9 2.9 6.2 2.9 8.1 0l1.4-2.1c.6-.9.9-2 .9-3.1v-7c0-1.1-.9-1.9-1.9-1.9h-8.8c-1.2 0-2 .8-2 1.9z"/>
    </g>
    <g id="g11">
      <path id="path10" d="M32.1 22.4h-.7v-3.2h.7c.5 0 .8.4.8.8v1.6c0 .4-.4.8-.8.8z" class="st6"/>
    </g>
    <g id="g12">
      <path id="path11" d="M18.004 22.4h.7v-3.2h-.7c-.5 0-.8.4-.8.8v1.6c0 .4.4.8.8.8z" class="st6"/>
    </g>
    <g id="g13">
      <path id="path12" d="M29.2 26.4h-2.5v-.7h2.5c1.2 0 2.1-.9 2.1-2.1v-1.9h.7v1.9c.1 1.5-1.2 2.8-2.8 2.8z" class="st6"/>
    </g>
    <path id="path13" d="M23.1 25.7c.3.8 1 1.4 1.9 1.4.9 0 1.6-.6 1.9-1.4z" class="st3"/>
    <path id="path14" d="M25.8 23.9c-.1-.3-.4-.6-.8-.6s-.7.3-.8.6z" class="st3"/>
    <g id="g14">
      <circle id="circle14" cx="26.9" cy="26" r="1" class="st7"/>
    </g>
    <g id="g15">
      <path id="path15" d="M27.8 16.7h-8.9c-1.3 0-2.3-1-2.3-2.3v-3.7h11c.9 0 1.6.7 1.6 1.6v3c0 .8-.6 1.4-1.4 1.4z" class="st1"/>
    </g>
    <g id="g16">
      <path id="path16" d="M31.6 13.1h-2.4v2.2c0 .8.6 1.4 1.4 1.4h1z" class="st1"/>
    </g>
    <g id="g19">
      <g id="g17">
        <path id="path17" d="M33.2 40.4c-.3 0-.5.3-.5.5v4.8h1.1v-4.8c-.1-.2-.4-.5-.6-.5z" class="st10"/>
      </g>
      <g id="g18">
        <path id="path18" d="M17 40.4c-.3 0-.5.3-.5.5v4.8h1.1v-4.8c0-.2-.3-.5-.6-.5z" class="st10"/>
      </g>
    </g>
    <circle id="circle19" cx="25" cy="36.9" r=".8" class="st4"/>
    <circle id="circle20" cx="25" cy="39.8" r=".8" class="st4"/>
    <circle id="circle21" cx="25" cy="42.6" r=".8" class="st4"/>
    <path id="path23" d="M29.4 20.5H27c-.2 0-.3-.1-.3-.3 0-.2.1-.3.3-.3h2.4c.2 0 .3.1.3.3 0 .1-.1.3-.3.3z" class="st0"/>
    <circle id="circle23" cx="28.2" cy="20.8" r=".7" class="st7"/>
    <path id="path24" d="M23 20.5h-2.4c-.2 0-.3-.1-.3-.3 0-.2.1-.3.3-.3H23c.2 0 .3.1.3.3 0 .1-.1.3-.3.3z" class="st0"/>
    <circle id="circle24" cx="21.8" cy="20.8" r=".7" class="st7"/>
  </g>
</svg>
