<svg xmlns="http://www.w3.org/2000/svg" width="1463.958" height="1362.654">
  <path fill="#673946" d="m541.176 858.926-33.28 30.978-137.27-147.475c4.647-14.792 11.467-30.225 19.616-45.658l150.934 162.155"/>
  <path fill="#673946" d="m541.176 858.926-33.28 30.978-137.27-147.475c4.095-13.095 9.93-26.671 16.865-40.335a340.477 340.477 0 0 1 2.75-5.323l150.935 162.155"/>
  <path fill="#895d70" d="m407.141 781.66-28.414-30.527c4.096-13.095 9.93-26.671 16.866-40.335a329.002 329.002 0 0 1 2.75-5.325L426.755 736a353.324 353.324 0 0 0-2.75 5.324c-6.935 13.664-12.769 27.24-16.865 40.335"/>
  <path fill="#eaeaea" d="M1110.359 769.38c-257.462 239.646-407.09 263.69-407.09 263.69L379.087 684.786s34.692-147.525 292.154-387.17C981.619 8.716 1463.958 0 1463.958 0s-43.22 480.48-353.6 769.38"/>
  <path fill="#cecece" d="m582.52 903.343-35.584-38.229c37.977-52.821 92.082-120.76 164.868-196.557 106.958-111.355 170.618-149.48 187.97-132.794 17.346 16.678-18.176 81.784-125.131 193.141-73.9 76.929-140.542 134.277-192.124 174.439m527.84-133.963c-257.462 239.646-407.09 263.69-407.09 263.69l-75.591-81.211s157.87-38.145 447.324-307.57c130.038-121.04 223.872-266.142 290.37-400.553l36.165 38.853c-49.947 155.11-138.038 344.248-291.178 486.791"/>
  <path fill="#562c36" d="m541.176 858.926-4.128 3.843-149.557-160.675a340.477 340.477 0 0 1 2.75-5.323l150.935 162.155"/>
  <path fill="#e83d23" d="M1401.564 282.618 1177.598 42.002C1340.138 2.24 1463.958 0 1463.958 0s-11.1 123.34-62.394 282.618"/>
  <path fill="#b51212" d="m1401.537 282.59-36.165-38.854c43.743-88.368 75.688-172.112 98.34-241.339-.355 3.591-1.192 11.127-2.65 22.066-.198 1.332-.36 2.704-.563 4.13-.788 5.67-1.698 12.11-2.83 19.23-.368 2.364-.73 4.832-1.133 7.374l-.029.028c-.59 3.809-1.28 7.803-1.984 11.92-.018.253-.073.45-.11.684-.248 1.416-.51 2.954-.773 4.472-.957 5.39-1.953 11.053-3.05 16.92a1391.73 1391.73 0 0 1-1.803 9.53 1142.48 1142.48 0 0 1-1.97 9.92c-.595 2.922-1.182 5.892-1.801 8.945-.466 2.2-.933 4.457-1.42 6.694-.365 1.78-.769 3.577-1.136 5.413-.79 3.594-1.592 7.292-2.415 11.026a296.083 296.083 0 0 1-1.277 5.634c-.001.057.016.076-.003.094-.852 3.762-1.752 7.57-2.637 11.453-.447 1.946-.933 3.93-1.38 5.875a595.013 595.013 0 0 1-1.805 7.455c-.872 3.525-1.736 7.098-2.629 10.698-.516 2.048-1.024 4.105-1.579 6.151a318.872 318.872 0 0 1-1.612 6.292 1072.297 1072.297 0 0 1-5.084 19.195c-1.202 4.325-2.407 8.707-3.64 13.115-3.131 11.02-6.43 22.27-9.908 33.759.008.047-.022.075-.051.102a1685.507 1685.507 0 0 1-4.301 13.93 423.382 423.382 0 0 1-2.253 7.034c-.116.344-.232.708-.349 1.053"/>
  <path fill="#e83d23" d="M1456.507 55.225c-.59 3.809-1.28 7.803-1.984 11.92.706-4.174 1.367-8.14 1.984-11.92m-17.739 91.158a1514.92 1514.92 0 0 0 4.829-22.073 955.392 955.392 0 0 1-4.83 22.073m-20.369 80.328a1380.018 1380.018 0 0 1-9.908 33.759 2054.806 2054.806 0 0 0 9.908-33.759m-16.834 55.907-.027-.029c.116-.345.233-.709.349-1.053-.089.374-.215.728-.322 1.082M389.176 656.486c-98.052-24.46-165.209-23.614-208.851-15.823 16.102-52.017 45.812-101.939 93.937-146.734C431.149 347.898 585.372 305.56 675.286 293.9a277.801 277.801 0 0 0-4.045 3.717C479.96 475.66 411.656 602.829 389.176 656.487"/>
  <path fill="#f9a293" d="M227.92 576.217c15.336-24.15 34.529-47.445 58.235-69.51 140.247-130.543 278.352-178.22 370.325-195.203-16.039 15.176-31.177 30.009-45.392 44.424-90.664 21.736-202.077 66.837-318.729 157.346-25.275 19.578-46.61 40.67-64.44 62.943"/>
  <path fill="#ff6200" d="M494.572 1184.555C324.235 1343.105 0 1362.655 0 1362.655s42.706-322.01 213.043-480.559c64.355-59.902 127.253-94.698 180.63-114.907l228.45 245.434c-23.98 51.792-63.196 112.03-127.551 171.932"/>
  <path fill="#f8b62e" d="M521.38 1088.816c-127.608 118.778-370.544 133.44-370.544 133.44s32.018-241.26 159.627-360.038c36.16-33.658 71.735-56.75 104.114-72.57L601.21 990.155c-18.098 31.163-43.67 65.002-79.83 98.66"/>
  <path fill="#fee789" d="M545.121 1004.203c-89.887 83.667-260.986 93.978-260.986 93.978s22.53-169.925 112.418-253.592c13.439-12.509 26.77-22.943 39.716-31.636L579.526 966.86c-9.6 12.288-20.966 24.834-34.405 37.343"/>
  <path fill="#fff" d="M714.79 353.405C529.08 526.262 446.357 652.83 411.366 719.467l-12.902-13.862s34.717-147.498 292.178-387.144c153.14-142.542 348.116-216.89 506.382-255.588l12.632 13.571c-158.393 50.812-343.163 135.753-494.868 276.96"/>
  <path fill="#f9a293" d="M1399.777 27.056c-54.762 11.031-119.842 26.827-190.12 49.388l-12.632-13.57c80.568-19.746 151.62-30.24 202.752-35.818"/>
  <path fill="#673946" d="m541.176 858.926-33.28 30.978 137.274 147.48c15.081-3.583 30.965-9.278 46.943-16.3L541.176 858.926"/>
  <path fill="#673946" d="m541.176 858.926-33.28 30.978 137.274 147.48c13.349-3.154 27.306-8.003 41.434-13.94a318.044 318.044 0 0 0 5.51-2.36L541.175 858.926"/>
  <path fill="#562c36" d="m671.074 998.48-70.495-75.735c-1.821.803-3.66 1.586-5.51 2.36-14.127 5.937-28.084 10.786-41.433 13.94l21.039 22.603 7.367 7.915 13.672 14.688 7.377 7.925 13.663 14.679 7.376 7.925 21.04 22.603c13.349-3.153 27.306-8.002 41.434-13.94a318.044 318.044 0 0 0 5.51-2.359l-21.04-22.603"/>
  <path fill="#562c36" d="m541.176 858.926-4.128 3.843 149.556 160.674a318.044 318.044 0 0 0 5.51-2.359L541.175 858.926"/>
  <path fill="#e83d23" d="M732.218 1025.031c17.376 99.55 11.723 166.47.833 209.449 53.037-12.335 104.954-38.4 153.079-83.195 156.887-146.03 210.16-296.823 228.223-385.677a250.634 250.634 0 0 1-3.994 3.772c-191.28 178.044-323.012 237.07-378.141 255.651"/>
  <path fill="#b51212" d="M742.632 1115.614c-1.28-26.66-4.524-56.72-10.414-90.583 55.129-18.581 186.86-77.607 378.14-255.651a250.634 250.634 0 0 0 3.995-3.772c-.28 1.5-.617 2.997-.946 4.542-5.976 8.276-12.146 16.442-18.475 24.555-186.118 238.014-318.619 306.389-352.3 320.909"/>
  <path fill="#cecece" d="M1168.24 533.714c-73.784 68.678-189.27 64.53-257.938-9.244-68.673-73.779-64.536-189.256 9.248-257.934 73.774-68.669 189.251-64.53 257.924 9.25 68.67 73.773 64.54 189.26-9.234 257.928"/>
  <path fill="#e83d23" d="M1168.578 524.273c-73.783 68.678-189.269 64.53-257.938-9.244-68.673-73.779-64.535-189.256 9.248-257.934 73.774-68.669 189.252-64.53 257.925 9.25 68.669 73.773 64.539 189.26-9.235 257.928"/>
  <path fill="#b51212" d="M1168.578 524.273c-73.783 68.678-189.269 64.53-257.938-9.244-35.604-38.251-51.628-87.717-48.54-136.063-.353 44.963 15.842 90.17 48.91 125.697 68.67 73.775 184.157 77.905 257.93 9.236 35.526-33.067 54.93-76.995 57.794-121.865-.388 48.45-19.907 96.638-58.156 132.24"/>
  <path fill="#f9a293" d="M1211.871 400.04c-.07-41.721-15.292-83.475-45.933-116.394-64.498-69.293-172.963-73.179-242.257-8.68-32.94 30.66-51.088 71.202-54.133 112.803-.134-46.015 18.231-92 54.606-125.857 69.294-64.499 177.76-60.613 242.257 8.68 33.861 36.379 48.879 83.55 45.46 129.447"/>
  <path fill="#b51212" d="M1142.219 492.432c-58.246 54.215-149.433 50.947-203.654-7.305-54.223-58.255-50.954-149.44 7.292-203.656 58.265-54.233 149.441-50.957 203.665 7.298 54.22 58.252 50.962 149.429-7.303 203.663"/>
  <path fill="#60d0f8" d="M1140.262 493.852c-56.977 53.035-146.166 49.838-199.2-7.14-53.035-56.976-49.836-146.162 7.141-199.197 56.978-53.034 146.154-49.832 199.189 7.145 53.034 56.978 49.848 146.158-7.13 199.192"/>
  <path fill="#53b8e0" d="M1140.262 493.852c-56.977 53.035-146.166 49.838-199.2-7.14-30.163-32.404-42.128-75.18-36.378-115.833 2.13 31.096 14.57 61.68 37.444 86.256 53.037 56.98 142.208 60.176 199.185 7.141 24.575-22.874 39.165-52.503 43.526-83.357 2.824 40.96-12.174 82.773-44.577 112.933"/>
  <path fill="#87e4f9" d="M1038.038 361.27c-48.866-1.756-88.328-7.616-87.266-37.1 1.052-29.478 41.81-60.016 90.685-58.27 48.867 1.756 87.347 35.132 86.281 64.613-1.047 29.482-40.835 32.51-89.7 30.756"/>
  <path fill="#e83d23" d="M899.371 534.644c-16.393-17.612-82.073 16.875-195.09 122.072-178.535 166.18-254.072 296.009-254.072 296.009S585.108 886.67 763.642 720.49c113.018-105.197 152.117-168.24 135.73-185.847"/>
  <path fill="#b51212" d="M763.633 720.481C585.098 886.661 450.2 952.734 450.2 952.734s21.263-36.57 67.926-95.753l-.878 1.19c-11.255 15.266 36.958 48.12 268.312-167.225 44.71-41.616 77.698-76.566 100.206-104.675-20.62 31.78-60.334 76.688-122.133 134.21"/>
  <path fill="#f9a293" d="M867.05 548.198s-79.851 31.337-203.523 167.221c0 0 130.576-120.306 203.523-167.22"/>
</svg>
