<svg xmlns="http://www.w3.org/2000/svg" width="226.68" height="226.68">
  <path fill="#fff" stroke="#72a7cf" stroke-width="15" d="M113.34 7.5C54.886 7.5 7.5 54.886 7.5 113.34s47.386 105.84 105.84 105.84 105.84-47.386 105.84-105.84S171.794 7.5 113.34 7.5Z"/>
  <path d="M96.99 94.052h32.79v92.37H96.99Zm16.35-53.792c5.16.117 9.55 1.875 13.18 5.273 3.34 3.575 5.07 7.94 5.19 13.096-.12 5.156-1.85 9.404-5.19 12.744-3.63 3.75-8.02 5.625-13.18 5.625s-9.4-1.875-12.74-5.625c-3.75-3.34-5.63-7.588-5.63-12.744s1.88-9.521 5.63-13.096c1.549-1.576 3.291-2.799 5.23-3.67 2.24-1.006 4.743-1.54 7.51-1.603z"/>
</svg>
