<svg xmlns="http://www.w3.org/2000/svg" xml:space="preserve" width="256" height="256">
  <g fill="none" stroke-miterlimit="10" stroke-width="0">
    <path fill="#fb3" stroke="#000" stroke-width="2.81" d="m243.702 141.432-.009-.003c-8.413-3.485-9.065-11.268-9.065-13.57-.003-2.304.652-10.087 9.065-13.572a17.065 17.065 0 0 0 9.296-9.295 17.057 17.057 0 0 0 0-13.146L241.802 64.84c-3.628-8.742-13.682-12.92-22.443-9.29-8.42 3.49-14.382-1.557-16.006-3.184-1.63-1.63-6.671-7.595-3.184-16.011a17.062 17.062 0 0 0-.003-13.143 17.06 17.06 0 0 0-9.292-9.295L163.867 2.73c-8.742-3.62-18.81.55-22.44 9.298-3.485 8.405-11.266 9.06-13.57 9.06s-10.088-.652-13.573-9.065a17.052 17.052 0 0 0-9.295-9.299 17.064 17.064 0 0 0-13.148 0L64.842 13.908a17.061 17.061 0 0 0-9.298 9.296 17.057 17.057 0 0 0 0 13.145c3.487 8.413-1.557 14.382-3.184 16.009-1.627 1.63-7.587 6.676-16.005 3.186a17.089 17.089 0 0 0-13.148 0 17.056 17.056 0 0 0-9.296 9.296l-11.184 27a17.064 17.064 0 0 0 0 13.149 17.056 17.056 0 0 0 9.296 9.295c8.407 3.485 9.062 11.271 9.062 13.573 0 2.301-.655 10.085-9.073 13.572-8.748 3.628-12.915 13.696-9.29 22.438l11.183 27.004a17.065 17.065 0 0 0 9.296 9.295 17.07 17.07 0 0 0 13.145 0c8.41-3.478 14.379 1.557 16.009 3.187 1.627 1.627 6.668 7.595 3.183 16.008-3.624 8.745.543 18.813 9.296 22.444l27.004 11.187a17.184 17.184 0 0 0 6.575 1.315 17.11 17.11 0 0 0 6.573-1.318 17.06 17.06 0 0 0 9.295-9.293c3.488-8.416 11.271-9.068 13.573-9.068s10.085.652 13.572 9.074c3.628 8.742 13.696 12.9 22.438 9.287l27.012-11.187c8.742-3.628 12.91-13.693 9.288-22.44-3.485-8.414 1.556-14.382 3.186-16.01 1.63-1.629 7.584-6.676 16.011-3.183 8.75 3.611 18.81-.55 22.441-9.298l11.187-27.004c3.622-8.745-.545-18.81-9.287-22.435zm-115.845 58.27c-39.68 0-71.846-32.165-71.846-71.845S88.177 56.01 127.857 56.01s71.846 32.166 71.846 71.846-32.166 71.846-71.846 71.846z"/>
    <path fill="#000" d="M127.857 172.682a8.395 8.395 0 0 1-5.96-2.47l-28.095-28.095a8.426 8.426 0 0 1 0-11.92 8.426 8.426 0 0 1 11.92 0l22.135 22.135 22.134-22.135a8.426 8.426 0 0 1 11.92 0 8.426 8.426 0 0 1 0 11.92l-28.094 28.095a8.4 8.4 0 0 1-5.96 2.47z"/>
    <path fill="#000" d="M127.857 172.682a8.43 8.43 0 0 1-8.43-8.43v-72.79a8.43 8.43 0 0 1 8.43-8.43 8.43 8.43 0 0 1 8.43 8.43v72.79a8.43 8.43 0 0 1-8.43 8.43z"/>
  </g>
</svg>
