<svg xmlns="http://www.w3.org/2000/svg" xml:space="preserve" width="47.999" height="48">
  <g fill="none" stroke-miterlimit="10" stroke-width="0">
    <path fill="#fb3" stroke="#000" stroke-width=".527" d="M45.745 26.548h-.002c-1.579-.655-1.701-2.116-1.701-2.548 0-.432.122-1.893 1.701-2.547a3.203 3.203 0 0 0 1.745-1.745 3.202 3.202 0 0 0 0-2.468l-2.1-5.07a3.228 3.228 0 0 0-4.212-1.743c-1.581.655-2.7-.292-3.005-.598-.306-.306-1.252-1.425-.598-3.005a3.203 3.203 0 0 0 0-2.467 3.202 3.202 0 0 0-1.744-1.745l-5.07-2.1a3.23 3.23 0 0 0-4.212 1.745c-.654 1.578-2.115 1.701-2.548 1.701-.432 0-1.893-.122-2.547-1.702A3.2 3.2 0 0 0 19.707.511a3.203 3.203 0 0 0-2.468 0l-5.068 2.1a3.203 3.203 0 0 0-1.746 1.744 3.202 3.202 0 0 0 0 2.468c.655 1.579-.292 2.7-.597 3.005-.306.306-1.424 1.253-3.005.598a3.208 3.208 0 0 0-2.468 0A3.202 3.202 0 0 0 2.61 12.17L.511 17.239a3.203 3.203 0 0 0 0 2.468 3.202 3.202 0 0 0 1.745 1.745c1.578.654 1.701 2.116 1.701 2.548 0 .432-.123 1.893-1.703 2.548A3.228 3.228 0 0 0 .51 30.76l2.1 5.069a3.203 3.203 0 0 0 1.744 1.744 3.204 3.204 0 0 0 2.468 0c1.578-.653 2.699.293 3.005.599.305.305 1.251 1.425.597 3.004a3.229 3.229 0 0 0 1.745 4.213l5.07 2.1a3.226 3.226 0 0 0 1.233.247 3.212 3.212 0 0 0 1.234-.247 3.202 3.202 0 0 0 1.745-1.745c.655-1.58 2.116-1.702 2.548-1.702.432 0 1.893.123 2.548 1.704a3.23 3.23 0 0 0 4.211 1.743l5.07-2.1a3.229 3.229 0 0 0 1.744-4.212c-.654-1.58.292-2.7.598-3.006.306-.305 1.424-1.253 3.006-.597a3.23 3.23 0 0 0 4.212-1.745l2.1-5.07a3.228 3.228 0 0 0-1.743-4.21zM23.999 37.486c-7.448 0-13.486-6.038-13.486-13.486S16.551 10.513 24 10.513 37.487 16.551 37.487 24c0 7.448-6.038 13.486-13.487 13.486z"/>
    <path fill="#000" d="M24 32.414a1.576 1.576 0 0 1-1.12-.463l-5.273-5.274a1.582 1.582 0 0 1 0-2.238 1.582 1.582 0 0 1 2.237 0L24 28.594l4.155-4.155a1.582 1.582 0 0 1 2.238 0 1.582 1.582 0 0 1 0 2.238l-5.274 5.274a1.577 1.577 0 0 1-1.119.463z"/>
    <path fill="#000" d="M24 32.414a1.582 1.582 0 0 1-1.583-1.582V17.168A1.582 1.582 0 0 1 24 15.586a1.582 1.582 0 0 1 1.583 1.582v13.664A1.582 1.582 0 0 1 24 32.414z"/>
  </g>
</svg>
