<svg xmlns="http://www.w3.org/2000/svg" width="48" height="42.58" version="1">
  <path fill-rule="evenodd" d="M23.114 42.58a21.805 21.805 0 0 0 12.421-3.778c4.367-2.973 7.331-7.42 8.646-12.39a6.894 6.894 0 0 0 2.674-2.142c1.448-1.923 1.604-5.374 0-7.507a4.663 4.646 0 0 0 0-.003l-1.457-1.935a4.663 4.646 0 0 0-.003-.003l-1.46-1.936c-1.607-2.128-3.881-2.821-5.915-2.821-2.033 0-4.307.693-5.913 2.821l-1.46 1.936a4.663 4.646 0 0 0-.003.003l-1.457 1.935a4.663 4.646 0 0 0 0 .004c-1.604 2.132-1.448 5.583 0 7.506.2.265.505.363.731.59a7.71 7.71 0 0 1-2.28 2.438 7.765 7.765 0 0 1-7.205.819l.072.027c-1.816-.74-4.084-.678-5.776.17-1.692.847-2.794 2.236-3.387 3.75-.593 1.514-.724 3.28-.055 5.045.665 1.754 2.281 3.314 4.107 4a21.816 21.816 0 0 0 7.719 1.47z" opacity=".2"/>
  <path fill="#ff9932" fill-rule="evenodd" d="M23.114 41.805a21.805 21.805 0 0 0 12.421-3.778c4.367-2.972 7.331-7.42 8.646-12.39a6.894 6.894 0 0 0 2.674-2.141c1.448-1.923 1.604-5.375 0-7.507a4.663 4.646 0 0 0 0-.003l-1.457-1.935a4.663 4.646 0 0 0-.003-.003l-1.46-1.936C42.328 9.983 40.054 9.29 38.02 9.29c-2.033 0-4.307.693-5.913 2.822l-1.46 1.936a4.663 4.646 0 0 0-.003.003l-1.457 1.935a4.663 4.646 0 0 0 0 .003c-1.604 2.132-1.448 5.584 0 7.507.2.265.505.363.731.59a7.71 7.71 0 0 1-2.28 2.437 7.765 7.765 0 0 1-7.205.82l.072.027c-1.816-.74-4.084-.679-5.776.17-1.692.847-2.794 2.236-3.387 3.75-.593 1.513-.724 3.28-.055 5.044.665 1.755 2.281 3.315 4.107 4.001a21.816 21.816 0 0 0 7.719 1.47z"/>
  <path fill-rule="evenodd" d="M24.886.775a21.808 21.808 0 0 0-12.421 3.777c-4.367 2.973-7.331 7.421-8.644 12.391a6.895 6.895 0 0 0-2.675 2.14c-1.448 1.924-1.604 5.376 0 7.508a4.663 4.646 0 0 0 0 .004l1.457 1.935a4.663 4.646 0 0 0 .003.002l1.46 1.936c1.606 2.129 3.88 2.822 5.913 2.822 2.033 0 4.308-.693 5.913-2.822l1.46-1.936a4.663 4.646 0 0 0 .004-.002l1.456-1.935a4.663 4.646 0 0 0 0-.004c1.604-2.132 1.447-5.584 0-7.507-.2-.266-.505-.363-.731-.59a7.711 7.711 0 0 1 2.28-2.437 7.765 7.765 0 0 1 7.206-.82l-.072-.027a7 7 0 0 0 1.927.464l1.222-1.624.004-.002 1.46-1.936c1.372-1.82 3.233-2.586 5.015-2.771a6.809 6.809 0 0 0-.411-3.096c-.666-1.754-2.28-3.313-4.107-4a21.814 21.814 0 0 0-7.719-1.47Z" opacity=".2"/>
  <path fill="#ffda43" fill-rule="evenodd" d="M24.886 0a21.805 21.805 0 0 0-12.421 3.778c-4.367 2.973-7.331 7.42-8.646 12.39a6.894 6.894 0 0 0-2.674 2.142c-1.448 1.923-1.604 5.375 0 7.507a4.663 4.646 0 0 0 0 .003l1.457 1.935a4.663 4.646 0 0 0 .003.003l1.46 1.936c1.607 2.129 3.881 2.821 5.915 2.821 2.033 0 4.307-.692 5.913-2.821l1.46-1.936a4.663 4.646 0 0 0 .003-.003l1.457-1.935a4.663 4.646 0 0 0 0-.003c1.604-2.132 1.448-5.584 0-7.507-.2-.265-.505-.363-.731-.59a7.71 7.71 0 0 1 2.28-2.437 7.765 7.765 0 0 1 7.205-.82l-.072-.027c1.816.74 4.084.679 5.776-.17 1.692-.847 2.794-2.236 3.387-3.75.593-1.513.724-3.28.055-5.044-.665-1.755-2.281-3.315-4.107-4.001A21.816 21.816 0 0 0 24.887 0z"/>
  <path fill="#fff" fill-rule="evenodd" d="M24.886 0a21.808 21.808 0 0 0-12.421 3.778c-4.367 2.972-7.331 7.42-8.644 12.39a6.895 6.895 0 0 0-2.675 2.141C.34 19.38-.046 20.922.028 22.447c.072-1.26.45-2.475 1.118-3.363a6.895 6.895 0 0 1 2.675-2.14c1.313-4.971 4.277-9.419 8.644-12.392a21.808 21.808 0 0 1 20.14-2.307c1.826.686 3.442 2.246 4.107 4a6.844 6.844 0 0 1 .433 2.003 6.806 6.806 0 0 0-.433-2.777c-.666-1.754-2.28-3.314-4.107-4.001A21.814 21.814 0 0 0 24.886 0Zm-6.46 17.979c-.12.169-.24.337-.346.516.226.226.532.323.732.589.668.888 1.047 2.105 1.118 3.364.075-1.525-.313-3.069-1.118-4.139a1.457 1.457 0 0 0-.386-.33z" opacity=".2"/>
  <path fill-rule="evenodd" d="M24.886 5.423a17.024 17.024 0 0 0-9.722 2.966c-4.212 2.879-6.867 7.486-7.328 12.514H7.16a2.515 1.935 0 0 0-2.177 2.903l1.451 1.935 1.455 1.936a2.515 1.935 0 0 0 4.355 0l1.454-1.936 1.451-1.935a2.515 1.935 0 0 0-2.177-2.903h-.484a12.379 12.379 0 0 1 16.787-9.991 2.323 2.323 0 1 0 1.688-4.328 17.01 17.01 0 0 0-6.076-1.161Z" opacity=".2"/>
  <path fill="#3f3f3f" fill-rule="evenodd" d="M24.886 4.649a17.024 17.024 0 0 0-9.722 2.966c-4.212 2.879-6.867 7.486-7.328 12.514H7.16a2.515 1.935 0 0 0-2.177 2.903l1.451 1.935 1.455 1.936a2.515 1.935 0 0 0 4.355 0l1.454-1.936 1.451-1.935a2.515 1.935 0 0 0-2.177-2.903h-.484a12.379 12.379 0 0 1 16.787-9.992 2.323 2.323 0 1 0 1.688-4.327 17.01 17.01 0 0 0-6.076-1.161Z"/>
  <path fill="#ff9932" fill-rule="evenodd" d="M46.853 15.99v-.004l-1.456-1.935-.003-.003-1.46-1.936c-1.606-2.129-3.88-2.822-5.914-2.822-2.033 0-4.307.693-5.913 2.822l-1.46 1.936-.003.003-1.457 1.935v.003z"/>
  <path fill-rule="evenodd" d="M23.114 37.931a17.024 17.024 0 0 0 9.722-2.966c4.212-2.878 6.867-7.486 7.328-12.514h.677a2.515 1.935 0 0 0 2.177-2.903l-1.451-1.935-1.455-1.936a2.515 1.935 0 0 0-4.355 0l-1.454 1.936-1.451 1.935a2.515 1.935 0 0 0 2.177 2.903h.484a12.379 12.379 0 0 1-16.787 9.992 2.323 2.323 0 1 0-1.688 4.327 17.01 17.01 0 0 0 6.076 1.161z" opacity=".2"/>
  <path fill="#3f3f3f" fill-rule="evenodd" d="M23.114 37.157a17.024 17.024 0 0 0 9.722-2.966c4.212-2.879 6.867-7.486 7.328-12.514h.677a2.515 1.935 0 0 0 2.177-2.903l-1.451-1.935-1.455-1.936a2.515 1.935 0 0 0-4.355 0l-1.454 1.936-1.451 1.935a2.515 1.935 0 0 0 2.177 2.903h.484a12.379 12.379 0 0 1-16.787 9.991 2.323 2.323 0 1 0-1.688 4.328 17.01 17.01 0 0 0 6.076 1.161z"/>
</svg>
