<svg xmlns="http://www.w3.org/2000/svg" width="47.999" height="44.678">
  <path fill="#673946" d="m17.744 28.162-1.091 1.016-4.501-4.836c.152-.485.376-.99.643-1.497l4.949 5.317"/>
  <path fill="#673946" d="m17.744 28.162-1.091 1.016-4.501-4.836a8.71 8.71 0 0 1 .553-1.322 11.163 11.163 0 0 1 .09-.175l4.949 5.317"/>
  <path fill="#895d70" d="m13.35 25.629-.933-1.001a8.71 8.71 0 0 1 .553-1.323 10.787 10.787 0 0 1 .09-.174l.932 1a11.585 11.585 0 0 0-.09.175 8.713 8.713 0 0 0-.553 1.323"/>
  <path fill="#eaeaea" d="M36.406 25.226c-8.442 7.857-13.348 8.646-13.348 8.646L12.43 22.452s1.138-4.837 9.58-12.694C32.184.286 47.998 0 47.998 0s-1.417 15.754-11.593 25.226"/>
  <path fill="#cecece" d="m19.1 29.618-1.167-1.253c1.245-1.732 3.019-3.96 5.405-6.445 3.507-3.65 5.594-4.9 6.163-4.354.569.547-.596 2.682-4.102 6.333-2.423 2.522-4.608 4.403-6.3 5.72m17.307-4.393c-8.442 7.857-13.348 8.646-13.348 8.646l-2.478-2.663s5.176-1.25 14.667-10.084c4.263-3.969 7.34-8.727 9.52-13.134l1.186 1.274c-1.638 5.086-4.526 11.287-9.547 15.961"/>
  <path fill="#562c36" d="m17.744 28.162-.136.126-4.903-5.268a11.163 11.163 0 0 1 .09-.175l4.949 5.317"/>
  <path fill="#e83d23" d="M45.954 9.266 38.61 1.377C43.94.073 48 0 48 0s-.364 4.044-2.046 9.266"/>
  <path fill="#b51212" d="m45.953 9.265-1.186-1.274A60.05 60.05 0 0 0 47.991.08c-.011.117-.039.364-.086.723l-.019.135c-.026.186-.056.398-.093.631l-.037.242c-.02.126-.043.257-.066.392 0 .008-.002.014-.003.022l-.026.147c-.031.176-.064.362-.1.554a45.631 45.631 0 0 1-.059.313 37.459 37.459 0 0 1-.065.325l-.059.293-.046.22-.037.177-.08.362a9.708 9.708 0 0 1-.041.185v.003l-.087.375-.045.193a19.509 19.509 0 0 1-.06.244c-.028.116-.056.233-.086.35-.017.068-.033.136-.051.203a10.455 10.455 0 0 1-.053.206 35.158 35.158 0 0 1-.167.63l-.12.43a67.34 67.34 0 0 1-.326 1.11 55.263 55.263 0 0 1-.14.456 13.882 13.882 0 0 1-.075.23l-.011.035"/>
  <path fill="#e83d23" d="m47.755 1.81-.065.392.065-.391M47.174 4.8a49.67 49.67 0 0 0 .158-.724 31.325 31.325 0 0 1-.158.724m-.668 2.633a45.247 45.247 0 0 1-.325 1.107 67.372 67.372 0 0 0 .325-1.107m-.552 1.833h-.001l.011-.035-.01.035M12.76 21.525c-3.215-.802-5.417-.775-6.848-.52.528-1.705 1.502-3.342 3.08-4.81 5.144-4.788 10.2-6.176 13.149-6.559a9.108 9.108 0 0 0-.133.122c-6.271 5.838-8.51 10.007-9.248 11.767"/>
  <path fill="#f9a293" d="M7.473 18.893a11.625 11.625 0 0 1 1.91-2.28c4.598-4.28 9.126-5.843 12.141-6.4-.526.498-1.022.984-1.488 1.457-2.973.713-6.626 2.191-10.45 5.159a12.471 12.471 0 0 0-2.113 2.064"/>
  <path fill="#ff6200" d="M16.216 38.839C10.63 44.037 0 44.678 0 44.678S1.4 34.12 6.985 28.922c2.11-1.964 4.172-3.105 5.923-3.768l7.49 8.047c-.786 1.698-2.072 3.674-4.182 5.638"/>
  <path fill="#f8b62e" d="M17.095 35.7c-4.184 3.894-12.15 4.375-12.15 4.375s1.05-7.91 5.234-11.805c1.186-1.104 2.352-1.86 3.414-2.38l6.12 6.575c-.594 1.021-1.433 2.13-2.618 3.234"/>
  <path fill="#fee789" d="M17.873 32.925c-2.947 2.743-8.557 3.082-8.557 3.082s.739-5.572 3.686-8.315c.44-.41.878-.752 1.302-1.037l4.697 5.046c-.315.403-.687.814-1.128 1.224"/>
  <path fill="#fff" d="M23.436 11.587c-6.089 5.668-8.801 9.818-9.948 12.002l-.423-.454s1.138-4.836 9.58-12.693c5.02-4.674 11.413-7.112 16.602-8.38l.415.444c-5.194 1.666-11.252 4.451-16.226 9.081"/>
  <path fill="#f9a293" d="M45.895.887a57.87 57.87 0 0 0-6.233 1.62l-.415-.446A51.83 51.83 0 0 1 45.895.887"/>
  <path fill="#673946" d="m17.744 28.162-1.091 1.016 4.5 4.835a9.145 9.145 0 0 0 1.54-.534l-4.95-5.317"/>
  <path fill="#673946" d="m17.744 28.162-1.091 1.016 4.5 4.835a8.75 8.75 0 0 0 1.359-.457 10.428 10.428 0 0 0 .18-.077l-4.948-5.317"/>
  <path fill="#562c36" d="m22.003 32.738-2.312-2.484-.18.078a8.761 8.761 0 0 1-1.359.457l.69.741.242.26.448.481.242.26.448.481.242.26.69.741a8.743 8.743 0 0 0 1.358-.457 10.428 10.428 0 0 0 .18-.077l-.69-.741"/>
  <path fill="#562c36" d="m17.744 28.162-.136.126 4.904 5.268a10.428 10.428 0 0 0 .18-.077l-4.948-5.317"/>
  <path fill="#e83d23" d="M24.008 33.608c.57 3.264.384 5.458.027 6.867 1.739-.404 3.441-1.259 5.019-2.727 5.144-4.788 6.89-9.732 7.483-12.646a8.218 8.218 0 0 1-.131.124c-6.272 5.838-10.59 7.773-12.398 8.382"/>
  <path fill="#b51212" d="M24.349 36.578a24.11 24.11 0 0 0-.341-2.97c1.807-.61 6.126-2.544 12.398-8.382a8.218 8.218 0 0 0 .13-.124c-.008.05-.02.099-.03.15-.196.27-.398.538-.606.804-6.102 7.804-10.447 10.046-11.551 10.522"/>
  <path fill="#cecece" d="M38.304 17.5a5.984 5.984 0 1 1-8.154-8.761 5.984 5.984 0 0 1 8.154 8.76"/>
  <path fill="#e83d23" d="M38.315 17.19a5.984 5.984 0 1 1-8.154-8.76 5.984 5.984 0 0 1 8.154 8.76"/>
  <path fill="#b51212" d="M38.315 17.19a5.984 5.984 0 0 1-10.049-4.765 5.984 5.984 0 0 0 11.955.428 5.97 5.97 0 0 1-1.906 4.337"/>
  <path fill="#f9a293" d="M39.734 13.116a5.62 5.62 0 0 0-11.224-.402 5.62 5.62 0 1 1 11.224.402"/>
  <path fill="#b51212" d="M37.45 16.146a4.725 4.725 0 1 1-6.437-6.918 4.725 4.725 0 0 1 6.437 6.918"/>
  <path fill="#60d0f8" d="M37.386 16.192a4.621 4.621 0 1 1-6.297-6.765 4.621 4.621 0 0 1 6.297 6.765"/>
  <path fill="#53b8e0" d="M37.386 16.192a4.621 4.621 0 0 1-7.724-4.032 4.62 4.62 0 0 0 9.186.33 4.61 4.61 0 0 1-1.462 3.702"/>
  <path fill="#87e4f9" d="M34.035 11.845c-1.603-.057-2.896-.25-2.862-1.216.035-.967 1.371-1.968 2.974-1.91 1.602.057 2.864 1.151 2.829 2.118-.035.966-1.34 1.066-2.941 1.008"/>
  <path fill="#e83d23" d="M29.488 17.53c-.537-.578-2.69.553-6.396 4.002-5.854 5.449-8.33 9.705-8.33 9.705s4.422-2.165 10.276-7.614c3.705-3.45 4.987-5.516 4.45-6.093"/>
  <path fill="#b51212" d="M25.038 23.623c-5.854 5.448-10.277 7.615-10.277 7.615s.697-1.2 2.227-3.14l-.029.04c-.369.5 1.212 1.577 8.798-5.484 1.465-1.364 2.547-2.51 3.285-3.432-.676 1.042-1.978 2.515-4.004 4.4"/>
  <path fill="#f9a293" d="M28.428 17.974s-2.618 1.027-6.673 5.483c0 0 4.282-3.945 6.673-5.483"/>
</svg>
