<svg width="118" height="177" viewBox="0 0 118 177" xmlns="http://www.w3.org/2000/svg">
  <style>
    .j {
      fill-opacity: 1;
      fill-rule: nonzero;
      stroke: none;
    }
    .aqua    { fill: #20bcc8; }
    .carbon  { fill: #2c2829; }
    .jade    { fill: #33cc99; }
    .plum    { fill: #821293; }
    .royal   { fill: #2b57a8; }
    .ruby    { fill: #d920a2; }
    .triumph { fill: #3c83b2; }
  </style>
<path d="M58.9996 169C30.878 169 8 146.129 8 118.02V102.043C8 100.956 8.88354 100.075 9.97062 100.075C11.0599 100.075 11.9432 100.956 11.9432 102.043V118.02C11.9432 143.959 33.0525 165.061 58.9996 165.061C84.9452 165.061 106.057 143.959 106.057 118.02V19.9699C106.057 18.8815 106.938 18 108.027 18C109.117 18 110 18.8815 110 19.9699V118.02C110 146.129 87.1202 169 58.9996 169Z" class="j aqua"/>
<path d="M20 90C20 91.1058 19.1054 92 17.9998 92C16.8965 92 16 91.1058 16 90C16 88.8963 16.8965 88 17.9998 88C19.1054 88 20 88.8963 20 90Z" class="j triumph"/>
<path d="M28 100C28 101.105 27.1039 102 26.0011 102C24.8961 102 24 101.105 24 100C24 98.8942 24.8961 98 26.0011 98C27.1039 98 28 98.8942 28 100Z" class="j royal"/>
<path d="M58.9984 138C47.9703 138 39 129.22 39 118.43V112.265C39 111.171 39.9049 110.287 41.0237 110.287C42.1406 110.287 43.0478 111.171 43.0478 112.265V118.43C43.0478 127.034 50.2013 134.039 58.9984 134.039C67.7941 134.039 74.9497 127.034 74.9497 118.43V5.98066C74.9497 4.88558 75.8568 4 76.9759 4C78.0943 4 79 4.88558 79 5.98066V118.43C79 129.22 70.0273 138 58.9984 138Z" class="j ruby"/>
<path d="M35.8927 94.8183C35.8927 95.9047 35.021 96.787 33.9477 96.787C32.8725 96.787 32.0008 95.9047 32.0008 94.8183C32.0008 93.7319 32.8725 92.8496 33.9477 92.8496C35.021 92.8496 35.8927 93.7319 35.8927 94.8183ZM58.9996 145C44.1132 145 32 132.742 32 117.675V113.516C32 112.428 32.8718 111.548 33.945 111.548C35.0201 111.548 35.8898 112.428 35.8898 113.516V117.675C35.8898 130.572 46.2593 141.063 58.9996 141.063C71.7405 141.063 82.1078 130.572 82.1078 117.675V1.96868C82.1078 0.882304 82.9795 4.18704e-06 84.0529 4.18704e-06C85.1276 4.18704e-06 86 0.882304 86 1.96868V117.675C86 132.742 73.8866 145 58.9996 145Z" class="j plum"/>
<path d="M34.0001 110C32.8945 110 32 109.104 32 108V102C32 100.894 32.8945 100 34.0001 100C35.1035 100 36 100.894 36 102V108C36 109.104 35.1035 110 34.0001 110Z" class="j plum"/>
<path d="M43 105C43 106.106 42.1035 107 40.9998 107C39.8942 107 39 106.106 39 105C39 103.895 39.8942 103 40.9998 103C42.1035 103 43 103.895 43 105Z" class="j ruby"/>
<path d="M58.9986 153C39.6984 153 24 137.214 24 117.808V106.767C24 105.679 24.8754 104.798 25.9572 104.798C27.0374 104.798 27.9128 105.679 27.9128 106.767V117.808C27.9128 135.044 41.8566 149.064 58.9986 149.064C76.1397 149.064 90.0828 135.044 90.0828 117.808V11.9682C90.0828 10.8821 90.9601 9.99999 92.0404 9.99999C93.1227 9.99999 94 10.8821 94 11.9682V117.808C94 137.214 78.2995 153 58.9986 153Z" class="j royal"/>
<path d="M17.9998 105C16.8965 105 16 104.106 16 103V97.0001C16 95.895 16.8965 95 17.9998 95C19.1054 95 20 95.895 20 97.0001V103C20 104.106 19.1054 105 17.9998 105Z" class="j triumph"/>
<path d="M58.9986 161C35.2903 161 16 141.657 16 117.882V108.796C16 107.711 16.879 106.825 17.9651 106.825C19.0476 106.825 19.9285 107.711 19.9285 108.796V117.882C19.9285 139.485 37.4549 157.059 58.9986 157.059C80.5426 157.059 98.0672 139.485 98.0672 117.882V7.97069C98.0672 6.88319 98.948 6 100.035 6C101.117 6 102 6.88319 102 7.97069V117.882C102 141.657 82.7075 161 58.9986 161Z" class="j triumph"/>
<path d="M12 95C12 96.1037 11.1054 97 9.99982 97C8.89648 97 8 96.1037 8 95C8 93.8963 8.89648 93 9.99982 93C11.1054 93 12 93.8963 12 95Z" class="j aqua"/>
<path d="M3.94905 85.3166C3.94905 86.4063 3.06587 87.2881 1.97435 87.2881C0.882905 87.2881 0 86.4063 0 85.3166C0 84.2283 0.882905 83.3445 1.97435 83.3445C3.06587 83.3445 3.94905 84.2283 3.94905 85.3166ZM59 177C26.4693 177 0.000835097 150.567 0.000835097 118.077V104.053C0.000835097 102.964 0.885899 102.081 1.97519 102.081C3.0667 102.081 3.94988 102.964 3.94988 104.053V118.077C3.94988 148.391 28.6442 173.056 59 173.056C89.3564 173.056 114.049 148.391 114.049 118.077V15.9701C114.049 14.8839 114.934 14 116.023 14C117.115 14 118 14.8839 118 15.9701V118.077C118 150.567 91.5317 177 59 177ZM1.97463 100.108C0.883184 100.108 0.000278366 99.2267 0.000278366 98.1363V92.2205C0.000278366 91.1322 0.883184 90.2484 1.97463 90.2484C3.06614 90.2484 3.94933 91.1322 3.94933 92.2205V98.1363C3.94933 99.2267 3.06614 100.108 1.97463 100.108Z" class="j jade"/>
</svg>
