<svg xmlns="http://www.w3.org/2000/svg" width="16" height="16" viewBox="0 0 16 16">
  <style>
    path { fill: #000; }
    @media (prefers-color-scheme: dark) { path { fill: #fff; } }
  </style>
<path fill="#000" d="M8 0.6L8 0.6Q6.5 0.6 5.1 1.2L5.1 1.2Q3.8 1.8 2.8 2.8Q1.8 3.8 1.2 5.1L1.2 5.1Q0.6 6.5 0.6 8L0.6 8Q0.6 9.5 1.2 10.9L1.2 10.9Q1.8 12.2 2.8 13.2Q3.8 14.2 5.1 14.8L5.1 14.8Q6.5 15.4 8 15.4L8 15.4Q9.5 15.4 10.9 14.8L10.9 14.8Q12.2 14.2 13.2 13.2Q14.2 12.2 14.8 10.9L14.8 10.9Q15.4 9.5 15.4 8L15.4 8Q15.4 6.5 14.8 5.1L14.8 5.1Q14.2 3.8 13.2 2.8Q12.2 1.8 10.9 1.2L10.9 1.2Q9.5 0.6 8 0.6L8 0.6ZM8 13.8L8 13.8Q6.8 13.8 5.8 13.3L5.8 13.3Q4.7 12.9 3.9 12.1Q3.1 11.3 2.7 10.2L2.7 10.2Q2.2 9.2 2.2 8L2.2 8Q2.2 6.8 2.7 5.8L2.7 5.8Q3.1 4.7 3.9 3.9Q4.7 3.1 5.8 2.7L5.8 2.7Q6.8 2.2 8 2.2L8 2.2Q9.2 2.2 10.3 2.7L10.3 2.7Q11.3 3.1 12.1 3.9Q12.9 4.7 13.3 5.8L13.3 5.8Q13.8 6.8 13.8 8L13.8 8Q13.8 9.2 13.3 10.2L13.3 10.2Q12.9 11.3 12.1 12.1Q11.3 12.9 10.3 13.3L10.3 13.3Q9.2 13.8 8 13.8ZM8.6 7.8L8.6 3.8L7.4 3.8L7.4 8.2L10.2 11.0L11.0 10.2L8.6 7.8Z" />
      </svg>
