<svg width="112" height="112" viewBox="0 0 112 112" fill="none" xmlns="http://www.w3.org/2000/svg">
<path d="M96 0H16C7.16344 0 0 7.16344 0 16V96C0 104.837 7.16344 112 16 112H96C104.837 112 112 104.837 112 96V16C112 7.16344 104.837 0 96 0Z" fill="#4BADE8"/>
<path fill-rule="evenodd" clip-rule="evenodd" d="M84.9974 29.7531C88.4475 32.5132 89.0068 37.5475 86.2468 40.9976L54.2468 80.9976C51.4867 84.4477 46.4523 85.0071 43.0022 82.247C39.5522 79.4869 38.9928 74.4526 41.7529 71.0025L73.7529 31.0025C76.5129 27.5524 81.5473 26.993 84.9974 29.7531Z" fill="white"/>
<path fill-rule="evenodd" clip-rule="evenodd" d="M26.3431 54.3431C29.4673 51.219 34.5327 51.219 37.6569 54.3431L53.6569 70.3431C56.781 73.4673 56.781 78.5327 53.6569 81.6569C50.5327 84.781 45.4673 84.781 42.3431 81.6569L26.3431 65.6569C23.219 62.5327 23.219 57.4673 26.3431 54.3431Z" fill="white"/>
</svg>
