<svg width="112" height="112" viewBox="0 0 112 112" fill="none" xmlns="http://www.w3.org/2000/svg">
<path d="M96 0H16C7.16344 0 0 7.16344 0 16V96C0 104.837 7.16344 112 16 112H96C104.837 112 112 104.837 112 96V16C112 7.16344 104.837 0 96 0Z" fill="#4BAEE8"/>
<path fill-rule="evenodd" clip-rule="evenodd" d="M88 44.3473V46.5721C87.9573 46.7504 87.8884 46.9269 87.876 47.1072C87.7337 49.1946 87.2541 51.2107 86.5488 53.1755C84.8147 58.0067 81.9447 62.1522 78.5421 65.959C72.1208 73.1433 64.4012 78.7689 56.2999 83.9264C56.1444 84.0253 55.812 84.0241 55.6555 83.9254C48.7576 79.5667 42.1699 74.8092 36.3592 69.074C32.5806 65.3444 29.2202 61.2928 26.8417 56.526C24.8584 52.5512 23.6683 48.3909 24.0818 43.9064C24.583 38.4712 27.1276 34.153 31.6619 31.0794C35.8084 28.2687 40.4077 27.2591 45.3353 28.5636C49.5895 29.6897 52.8104 32.3479 55.473 35.7266C55.6318 35.9279 55.7909 36.1288 55.926 36.2996C56.9007 35.2264 57.7588 34.1564 58.7448 33.2178C62.8557 29.3042 67.6188 27.3155 73.452 28.2814C80.1127 29.3843 85.9824 34.7667 87.4644 41.3194C87.6903 42.3182 87.8237 43.3375 88 44.3473Z" fill="white"/>
</svg>
