<svg width="112" height="112" viewBox="0 0 112 112" fill="none" xmlns="http://www.w3.org/2000/svg">
<path d="M96 0H16C7.16344 0 0 7.16344 0 16V96C0 104.837 7.16344 112 16 112H96C104.837 112 112 104.837 112 96V16C112 7.16344 104.837 0 96 0Z" fill="#E5493A"/>
<path fill-rule="evenodd" clip-rule="evenodd" d="M95.3887 57.6592L95.445 57.6188L83.37 41.4313L83.3137 41.4717C82.5811 40.4843 81.4622 39.8125 80.15 39.8125C78.5722 39.8125 77.244 40.7433 76.5839 42.0626L76.5436 42.0464L68.4775 58.2663L55.7102 26.1664L55.6941 26.1745C55.1064 24.6772 53.6655 23.625 51.975 23.625C50.1315 23.625 48.6503 24.8876 48.1674 26.5792L48.103 26.5549L34.8446 73.2073L23.3734 50.1401L23.3331 50.1563C22.673 48.837 21.3447 47.9063 19.775 47.9063C17.5532 47.9063 15.75 49.7112 15.75 51.9531C15.75 52.6006 15.9351 53.1915 16.2088 53.7418L16.1686 53.758L32.2686 86.133L32.3088 86.1168C32.969 87.4361 34.2972 88.375 35.875 88.375C37.7104 88.375 39.1916 87.1124 39.6746 85.4208L39.747 85.437L52.611 40.1605L64.3398 69.638H64.3478C64.9436 71.1272 66.3764 72.1875 68.075 72.1875C69.6448 72.1875 70.973 71.2486 71.6331 69.9293L71.6734 69.9455L80.8343 51.5242L88.9969 62.4669L89.0533 62.4264C89.7939 63.4139 90.9048 64.0938 92.225 64.0938C94.4468 64.0938 96.25 62.2808 96.25 60.0469C96.25 59.1323 95.8958 58.331 95.3887 57.6592Z" fill="white"/>
</svg>
