<svg width="686" height="177" viewBox="0 0 686 177" fill="none" xmlns="http://www.w3.org/2000/svg">
  <style>
    .j {
      fill-opacity: 1;
      fill-rule: nonzero;
      stroke: none;
    }
    .aqua    { fill: #20bcc8; }
    .carbon  { fill: #2c2829; }
    .jade    { fill: #33cc99; }
    .plum    { fill: #821293; }
    .royal   { fill: #2b57a8; }
    .ruby    { fill: #d920a2; }
    .triumph { fill: #3c83b2; }
  </style>
<path d="M58.9996 169C30.878 169 8 146.129 8 118.02V102.043C8 100.956 8.88354 100.075 9.97062 100.075C11.0599 100.075 11.9432 100.956 11.9432 102.043V118.02C11.9432 143.959 33.0525 165.061 58.9996 165.061C84.9452 165.061 106.057 143.959 106.057 118.02V19.9699C106.057 18.8815 106.938 18 108.027 18C109.117 18 110 18.8815 110 19.9699V118.02C110 146.129 87.1202 169 58.9996 169Z" class="j aqua"/>
<path d="M20 90C20 91.1058 19.1054 92 17.9998 92C16.8965 92 16 91.1058 16 90C16 88.8963 16.8965 88 17.9998 88C19.1054 88 20 88.8963 20 90Z" class="j triumph"/>
<path d="M28 100C28 101.105 27.1039 102 26.0011 102C24.8961 102 24 101.105 24 100C24 98.8942 24.8961 98 26.0011 98C27.1039 98 28 98.8942 28 100Z" class="j royal"/>
<path d="M58.9984 138C47.9703 138 39 129.22 39 118.43V112.265C39 111.171 39.9049 110.287 41.0237 110.287C42.1406 110.287 43.0478 111.171 43.0478 112.265V118.43C43.0478 127.034 50.2013 134.039 58.9984 134.039C67.7941 134.039 74.9497 127.034 74.9497 118.43V5.98066C74.9497 4.88558 75.8568 4 76.9759 4C78.0943 4 79 4.88558 79 5.98066V118.43C79 129.22 70.0273 138 58.9984 138Z" class="j ruby"/>
<path d="M35.8927 94.8183C35.8927 95.9047 35.021 96.787 33.9477 96.787C32.8725 96.787 32.0008 95.9047 32.0008 94.8183C32.0008 93.7319 32.8725 92.8496 33.9477 92.8496C35.021 92.8496 35.8927 93.7319 35.8927 94.8183ZM58.9996 145C44.1132 145 32 132.742 32 117.675V113.516C32 112.428 32.8718 111.548 33.945 111.548C35.0201 111.548 35.8898 112.428 35.8898 113.516V117.675C35.8898 130.572 46.2593 141.063 58.9996 141.063C71.7405 141.063 82.1078 130.572 82.1078 117.675V1.96868C82.1078 0.882304 82.9795 4.18704e-06 84.0529 4.18704e-06C85.1276 4.18704e-06 86 0.882304 86 1.96868V117.675C86 132.742 73.8866 145 58.9996 145Z" class="j plum"/>
<path d="M34.0001 110C32.8945 110 32 109.104 32 108V102C32 100.894 32.8945 100 34.0001 100C35.1035 100 36 100.894 36 102V108C36 109.104 35.1035 110 34.0001 110Z" class="j plum"/>
<path d="M43 105C43 106.106 42.1035 107 40.9998 107C39.8942 107 39 106.106 39 105C39 103.895 39.8942 103 40.9998 103C42.1035 103 43 103.895 43 105Z" class="j ruby"/>
<path d="M58.9986 153C39.6984 153 24 137.214 24 117.808V106.767C24 105.679 24.8754 104.798 25.9572 104.798C27.0374 104.798 27.9128 105.679 27.9128 106.767V117.808C27.9128 135.044 41.8566 149.064 58.9986 149.064C76.1397 149.064 90.0828 135.044 90.0828 117.808V11.9682C90.0828 10.8821 90.9601 9.99999 92.0404 9.99999C93.1227 9.99999 94 10.8821 94 11.9682V117.808C94 137.214 78.2995 153 58.9986 153Z" class="j royal"/>
<path d="M17.9998 105C16.8965 105 16 104.106 16 103V97.0001C16 95.895 16.8965 95 17.9998 95C19.1054 95 20 95.895 20 97.0001V103C20 104.106 19.1054 105 17.9998 105Z" class="j triumph"/>
<path d="M58.9986 161C35.2903 161 16 141.657 16 117.882V108.796C16 107.711 16.879 106.825 17.9651 106.825C19.0476 106.825 19.9285 107.711 19.9285 108.796V117.882C19.9285 139.485 37.4549 157.059 58.9986 157.059C80.5426 157.059 98.0672 139.485 98.0672 117.882V7.97069C98.0672 6.88319 98.948 6 100.035 6C101.117 6 102 6.88319 102 7.97069V117.882C102 141.657 82.7075 161 58.9986 161Z" class="j triumph"/>
<path d="M12 95C12 96.1037 11.1054 97 9.99982 97C8.89648 97 8 96.1037 8 95C8 93.8963 8.89648 93 9.99982 93C11.1054 93 12 93.8963 12 95Z" class="j aqua"/>
<path d="M3.94905 85.3166C3.94905 86.4063 3.06587 87.2881 1.97435 87.2881C0.882905 87.2881 0 86.4063 0 85.3166C0 84.2283 0.882905 83.3445 1.97435 83.3445C3.06587 83.3445 3.94905 84.2283 3.94905 85.3166ZM59 177C26.4693 177 0.000835097 150.567 0.000835097 118.077V104.053C0.000835097 102.964 0.885899 102.081 1.97519 102.081C3.0667 102.081 3.94988 102.964 3.94988 104.053V118.077C3.94988 148.391 28.6442 173.056 59 173.056C89.3564 173.056 114.049 148.391 114.049 118.077V15.9701C114.049 14.8839 114.934 14 116.023 14C117.115 14 118 14.8839 118 15.9701V118.077C118 150.567 91.5317 177 59 177ZM1.97463 100.108C0.883184 100.108 0.000278366 99.2267 0.000278366 98.1363V92.2205C0.000278366 91.1322 0.883184 90.2484 1.97463 90.2484C3.06614 90.2484 3.94933 91.1322 3.94933 92.2205V98.1363C3.94933 99.2267 3.06614 100.108 1.97463 100.108Z" class="j jade"/>
<path d="M271.901 31.1522C245.609 31.1522 224.298 52.5235 224.298 78.8674C224.298 105.218 245.609 126.575 271.901 126.575C298.186 126.575 319.504 105.218 319.504 78.8674C319.504 52.5235 298.186 31.1522 271.901 31.1522ZM271.901 104.734C257.634 104.734 246.08 93.1529 246.08 78.8674C246.08 64.5747 257.634 52.9967 271.901 52.9967C286.161 52.9967 297.716 64.5747 297.716 78.8674C297.716 93.1529 286.161 104.734 271.901 104.734ZM193.795 12.6292V87.5665C193.795 100.089 188.801 105.466 177.724 105.466C173.979 105.466 169.502 104.713 166.875 103.463L160 120.092C165.046 123.956 173.503 126.575 182.547 126.575C197.898 126.575 215.584 120.132 215.584 93.8263V2.65491e-06L193.795 12.6292ZM650.244 108.58V60.4908C650.244 34.5608 630.644 30.5847 611.052 30.5847C591.107 30.5847 572.239 38.8718 572.239 60.3141L594.163 61.2053C594.163 51.3098 598.295 47.5295 611.052 47.5295C620.594 47.5295 628.317 50.0458 628.317 59.0455V61.7505C622.742 63.7333 612.497 65.5425 604.581 67.1466L595.413 68.9601C581.943 71.6531 567.742 79.5775 567.742 97.4135C567.742 115.071 581.407 126.056 598.667 126.056C609.993 126.056 619.867 122.448 628.317 115.602C628.317 117.948 629.03 121.733 630.475 123.9H653.656C652.394 121.917 650.244 117.948 650.244 108.58ZM628.317 91.3026C628.317 102.994 615.2 108.05 604.955 108.05C597.046 108.05 590.753 103.543 590.753 96.699C590.753 88.0394 597.582 85.7091 605.842 84.0976L617.895 81.5696C621.834 80.8415 625.437 79.7678 628.317 78.3135V91.3026ZM407.468 123.868H385.679V113.218C384.595 114.843 382.425 117.725 378.648 120.253C373.249 124.229 364.969 126.573 357.944 126.573C347.67 126.573 338.847 121.885 334.344 115.746C328.757 108.169 328.757 98.4227 328.757 86.6785V32.0668H350.199V79.6368C350.199 86.3176 350.199 90.8315 350.918 93.3666C352.892 101.298 358.669 105.464 365.681 105.464C372.707 105.464 379.197 101.298 382.255 95.3569C385.679 88.676 385.679 79.467 385.679 72.7861V32.0668H407.468V123.868ZM481.799 32.0652H503.595V44.5095C504.672 42.8918 506.835 40.0029 510.614 37.4793C516.019 33.506 524.299 31.1593 531.33 31.1593C541.598 31.1593 550.42 35.8428 554.917 41.9861C560.491 49.5655 560.491 59.3121 560.491 71.0554V123.866H539.076V78.0766C539.076 71.4029 539.076 66.889 538.349 64.3752C536.356 56.4162 530.605 52.2705 523.586 52.2705C516.553 52.2705 510.07 56.4161 507.011 62.3751C503.595 69.0562 503.595 78.265 503.595 84.9415V123.866H481.799V32.0652ZM443.859 73.4784C443.859 60.4217 455.994 50.3492 468.778 52.7138L477.465 31.7338C459.4 29.2058 448.663 36.0241 443.859 42.2805V32.0625H422.07V123.87H443.859V73.4784ZM663.537 12.6545V123.866H685.326V0.0395308L663.537 12.6545ZM420.841 136.303H446.634V140.234H435.96V168.791H431.472V140.234H420.841V136.303ZM455.914 147.919C454.868 147.919 453.937 148.1 453.126 148.463C452.314 148.828 451.615 149.33 451.034 149.968C450.452 150.612 449.989 151.368 449.638 152.242C449.292 153.112 449.06 154.073 448.943 155.121H462.493C462.376 152.853 461.759 151.085 460.64 149.817C459.523 148.551 457.948 147.919 455.914 147.919ZM456.132 169.446C454.33 169.446 452.727 169.124 451.319 168.485C449.908 167.846 448.709 166.963 447.723 165.842C446.735 164.723 445.987 163.413 445.478 161.914C444.969 160.414 444.717 158.805 444.717 157.088C444.717 155.401 444.985 153.806 445.524 152.306C446.061 150.805 446.815 149.497 447.79 148.376C448.762 147.256 449.936 146.377 451.319 145.733C452.695 145.094 454.229 144.773 455.914 144.773C457.657 144.773 459.196 145.094 460.53 145.733C461.867 146.377 463.002 147.264 463.931 148.399C464.889 149.562 465.607 150.961 466.086 152.591C466.566 154.22 466.806 156.041 466.806 158.049H448.856C448.943 159.184 449.161 160.246 449.509 161.237C449.858 162.225 450.337 163.084 450.947 163.813C451.557 164.539 452.298 165.107 453.169 165.516C454.041 165.925 455.043 166.128 456.176 166.128C457.801 166.128 459.145 165.768 460.207 165.058C461.266 164.344 461.984 163.36 462.362 162.108H466.327C465.804 164.294 464.649 166.06 462.862 167.414C461.078 168.768 458.833 169.446 456.132 169.446ZM481.269 169.446C479.529 169.446 477.951 169.124 476.543 168.485C475.135 167.846 473.936 166.963 472.95 165.842C471.961 164.723 471.2 163.413 470.661 161.914C470.125 160.414 469.856 158.805 469.856 157.088C469.856 155.401 470.125 153.806 470.661 152.306C471.2 150.805 471.961 149.497 472.95 148.376C473.936 147.256 475.135 146.377 476.543 145.733C477.951 145.094 479.529 144.773 481.269 144.773C484.087 144.773 486.376 145.51 488.135 146.979C489.889 148.45 490.971 150.449 491.379 152.984H487.327C487.036 151.442 486.383 150.231 485.367 149.36C484.349 148.486 482.984 148.047 481.269 148.047C480.079 148.047 479.026 148.282 478.111 148.748C477.196 149.213 476.435 149.854 475.823 150.67C475.215 151.483 474.759 152.443 474.454 153.551C474.147 154.657 473.995 155.836 473.995 157.088C473.995 158.371 474.147 159.554 474.454 160.646C474.759 161.738 475.215 162.691 475.823 163.507C476.435 164.32 477.196 164.964 478.111 165.428C479.026 165.895 480.079 166.127 481.269 166.127C483.101 166.127 484.546 165.624 485.605 164.619C486.667 163.614 487.27 162.241 487.415 160.491H491.423C491.161 163.318 490.15 165.516 488.394 167.085C486.637 168.659 484.262 169.445 481.269 169.445M499.524 146.783C499.497 147.512 499.467 148.165 499.437 148.748H499.57C500.442 147.496 501.478 146.519 502.684 145.823C503.891 145.124 505.349 144.773 507.062 144.773C509.532 144.773 511.462 145.43 512.859 146.739C514.251 148.047 514.95 149.943 514.95 152.417V168.791H510.942V152.897C510.942 151.382 510.483 150.219 509.568 149.403C508.653 148.59 507.397 148.181 505.801 148.181C504.899 148.181 504.065 148.332 503.294 148.638C502.524 148.943 501.863 149.373 501.313 149.927C500.758 150.481 500.332 151.15 500.027 151.936C499.722 152.722 499.57 153.582 499.57 154.512V168.791H495.516V136.303H499.57V144.818C499.57 145.4 499.554 146.054 499.524 146.783ZM524.402 148.661H524.535C525.377 147.466 526.39 146.519 527.583 145.823C528.773 145.124 530.227 144.773 531.94 144.773C534.407 144.773 536.34 145.43 537.735 146.739C539.129 148.047 539.828 149.943 539.828 152.417V168.791H535.82V152.897C535.82 151.382 535.359 150.219 534.446 149.403C533.529 148.59 532.275 148.181 530.676 148.181C529.777 148.181 528.94 148.332 528.172 148.638C527.402 148.943 526.741 149.373 526.189 149.927C525.636 150.481 525.21 151.15 524.905 151.936C524.6 152.722 524.448 153.582 524.448 154.512V168.791H520.394V145.342H524.402V148.661ZM555.421 166.128C556.614 166.128 557.666 165.895 558.581 165.428C559.498 164.964 560.26 164.32 560.867 163.507C561.48 162.691 561.936 161.738 562.241 160.646C562.546 159.554 562.7 158.371 562.7 157.089C562.7 155.836 562.546 154.657 562.241 153.552C561.936 152.444 561.48 151.477 560.867 150.646C560.26 149.817 559.498 149.171 558.581 148.703C557.666 148.238 556.614 148.006 555.421 148.006C554.231 148.006 553.179 148.238 552.264 148.703C551.349 149.171 550.587 149.817 549.975 150.646C549.367 151.477 548.911 152.444 548.606 153.552C548.299 154.657 548.145 155.836 548.145 157.089C548.145 158.371 548.299 159.554 548.606 160.646C548.911 161.738 549.367 162.691 549.975 163.507C550.587 164.32 551.349 164.964 552.264 165.428C553.179 165.895 554.231 166.128 555.421 166.128ZM555.467 169.445C553.695 169.445 552.103 169.124 550.695 168.485C549.287 167.846 548.088 166.963 547.1 165.842C546.114 164.722 545.352 163.413 544.813 161.914C544.277 160.413 544.008 158.805 544.008 157.088C544.008 155.401 544.277 153.806 544.813 152.306C545.352 150.805 546.114 149.497 547.1 148.376C548.088 147.256 549.287 146.376 550.695 145.733C552.103 145.094 553.695 144.772 555.467 144.772C557.237 144.772 558.822 145.094 560.216 145.733C561.61 146.376 562.8 147.256 563.789 148.376C564.775 149.497 565.532 150.805 566.054 152.306C566.577 153.806 566.839 155.401 566.839 157.088C566.839 158.805 566.577 160.413 566.054 161.914C565.532 163.412 564.775 164.722 563.789 165.842C562.8 166.963 561.61 167.846 560.216 168.485C558.822 169.124 557.237 169.445 555.467 169.445ZM571.283 136.303H575.335V168.791H571.283V136.303ZM591.191 166.128C592.384 166.128 593.434 165.895 594.351 165.428C595.266 164.964 596.028 164.32 596.638 163.507C597.25 162.691 597.706 161.738 598.011 160.646C598.314 159.554 598.47 158.371 598.47 157.089C598.47 155.836 598.314 154.657 598.011 153.552C597.706 152.444 597.25 151.477 596.638 150.646C596.028 149.817 595.266 149.171 594.351 148.703C593.434 148.238 592.384 148.006 591.191 148.006C589.999 148.006 588.946 148.238 588.034 148.703C587.119 149.171 586.358 149.817 585.745 150.646C585.135 151.477 584.679 152.444 584.374 153.552C584.069 154.657 583.915 155.836 583.915 157.089C583.915 158.371 584.069 159.554 584.374 160.646C584.679 161.738 585.135 162.691 585.745 163.507C586.358 164.32 587.119 164.964 588.034 165.428C588.946 165.895 589.999 166.128 591.191 166.128ZM591.237 169.445C589.465 169.445 587.873 169.124 586.463 168.485C585.055 167.846 583.858 166.963 582.87 165.842C581.881 164.722 581.12 163.413 580.584 161.914C580.047 160.413 579.776 158.805 579.776 157.088C579.776 155.401 580.047 153.806 580.584 152.306C581.12 150.805 581.881 149.497 582.87 148.376C583.858 147.256 585.055 146.376 586.463 145.733C587.873 145.094 589.465 144.772 591.237 144.772C593.008 144.772 594.59 145.094 595.986 145.733C597.378 146.376 598.571 147.256 599.557 148.376C600.545 149.497 601.299 150.805 601.825 152.306C602.345 153.806 602.607 155.401 602.607 157.088C602.607 158.805 602.345 160.413 601.825 161.914C601.299 163.412 600.545 164.722 599.557 165.842C598.571 166.963 597.378 167.846 595.986 168.485C594.59 169.124 593.008 169.445 591.237 169.445ZM616.638 164.422C617.913 164.422 618.988 164.213 619.862 163.79C620.734 163.367 621.435 162.785 621.974 162.043C622.511 161.301 622.896 160.42 623.13 159.403C623.359 158.382 623.476 157.277 623.476 156.082C623.476 153.609 622.919 151.667 621.8 150.254C620.681 148.842 618.945 148.134 616.592 148.134C614.444 148.134 612.831 148.879 611.758 150.363C610.683 151.848 610.146 153.827 610.146 156.303C610.146 158.805 610.697 160.783 611.8 162.241C612.905 163.695 614.517 164.422 616.638 164.422ZM616.812 177C613.733 177 611.343 176.423 609.644 175.274C607.945 174.125 606.979 172.502 606.746 170.406H610.538C610.713 171.629 611.35 172.509 612.453 173.047C613.558 173.587 614.982 173.856 616.725 173.856C618.817 173.856 620.419 173.382 621.538 172.437C622.657 171.488 623.217 170.014 623.217 168.004V167.349C623.217 166.68 623.224 166.046 623.238 165.451C623.251 164.853 623.274 164.367 623.304 163.987H623.217C622.401 165.152 621.451 166.067 620.362 166.738C619.273 167.406 617.899 167.742 616.246 167.742C614.762 167.742 613.391 167.467 612.128 166.91C610.864 166.359 609.782 165.573 608.883 164.555C607.982 163.536 607.278 162.328 606.769 160.93C606.259 159.531 606.007 157.977 606.007 156.258C606.007 154.452 606.266 152.836 606.791 151.412C607.312 149.984 608.032 148.785 608.947 147.808C609.862 146.833 610.928 146.084 612.15 145.557C613.37 145.036 614.661 144.772 616.026 144.772C617.711 144.772 619.128 145.087 620.275 145.715C621.424 146.339 622.373 147.25 623.13 148.442H623.217V145.342H627.225V167.83C627.225 169.4 626.975 170.763 626.485 171.912C625.989 173.061 625.292 174.014 624.391 174.771C623.462 175.529 622.359 176.088 621.08 176.455C619.803 176.819 618.379 177 616.812 177ZM632.843 145.342H636.898V168.791H632.843V145.342ZM632.756 136.303H636.985V141.02H632.756V136.303ZM652.406 147.919C651.36 147.919 650.432 148.1 649.618 148.463C648.806 148.828 648.106 149.33 647.526 149.968C646.944 150.612 646.481 151.368 646.132 152.242C645.786 153.112 645.552 154.073 645.435 155.121H658.985C658.87 152.853 658.251 151.085 657.134 149.817C656.018 148.551 654.44 147.919 652.406 147.919ZM652.624 169.446C650.824 169.446 649.221 169.124 647.811 168.485C646.4 167.846 645.203 166.963 644.215 165.842C643.227 164.723 642.479 163.413 641.972 161.914C641.463 160.414 641.209 158.805 641.209 157.088C641.209 155.401 641.479 153.806 642.016 152.306C642.552 150.805 643.309 149.497 644.281 148.376C645.254 147.256 646.43 146.377 647.811 145.733C649.189 145.094 650.723 144.773 652.406 144.773C654.149 144.773 655.69 145.094 657.024 145.733C658.361 146.377 659.494 147.264 660.423 148.399C661.381 149.562 662.101 150.961 662.58 152.591C663.06 154.22 663.298 156.041 663.298 158.049H645.348C645.435 159.184 645.653 160.246 646.001 161.237C646.352 162.225 646.831 163.084 647.439 163.813C648.051 164.539 648.79 165.107 649.661 165.516C650.535 165.925 651.535 166.128 652.67 166.128C654.295 166.128 655.637 165.768 656.699 165.058C657.758 164.344 658.478 163.36 658.856 162.108H662.819C662.298 164.294 661.143 166.06 659.356 167.414C657.57 168.768 655.327 169.446 652.624 169.446ZM676.587 169.487C673.333 169.487 670.822 168.784 669.049 167.373C667.279 165.96 666.307 164.059 666.132 161.673H670.228C670.343 162.517 670.59 163.232 670.966 163.813C671.345 164.397 671.817 164.861 672.383 165.21C672.95 165.558 673.597 165.814 674.321 165.973C675.046 166.134 675.832 166.215 676.674 166.215C678.534 166.215 679.877 165.855 680.705 165.144C681.531 164.431 681.946 163.548 681.946 162.501C681.946 161.222 681.444 160.326 680.444 159.816C679.439 159.308 677.908 158.849 675.846 158.442C674.716 158.207 673.617 157.948 672.555 157.655C671.496 157.364 670.567 156.971 669.769 156.474C668.969 155.98 668.332 155.325 667.852 154.512C667.373 153.696 667.132 152.648 667.132 151.368C667.132 149.359 667.88 147.764 669.377 146.587C670.872 145.407 672.987 144.818 675.715 144.818C678.651 144.818 680.87 145.444 682.384 146.693C683.893 147.946 684.778 149.591 685.041 151.63H680.987C680.813 150.407 680.297 149.474 679.439 148.835C678.584 148.194 677.314 147.875 675.628 147.875C674.032 147.875 672.877 148.194 672.166 148.835C671.453 149.474 671.099 150.247 671.099 151.15C671.099 151.761 671.235 152.262 671.51 152.655C671.787 153.048 672.193 153.377 672.732 153.639C673.269 153.9 673.922 154.119 674.693 154.293C675.461 154.466 676.341 154.657 677.327 154.861C678.488 155.096 679.595 155.355 680.641 155.647C681.684 155.939 682.606 156.346 683.406 156.87C684.204 157.394 684.837 158.084 685.301 158.945C685.766 159.802 686 160.917 686 162.284C686 163.477 685.766 164.525 685.301 165.428C684.837 166.329 684.191 167.081 683.363 167.676C682.535 168.274 681.538 168.724 680.38 169.03C679.217 169.335 677.953 169.487 676.587 169.487" class="j carbon"/>
</svg>
